# xmcd
#
# Track frame offsets:
# 150
# 13446
# 32674
# 51802
# 66410
# 84224
# 99784
# 119086
# 132656
# 152920
#
# Disc length: 2257 seconds
#
#
# Revision: 3
# Processed by: cddbd v1.5.2PL0 Copyright (c) Steve Scherf et al.
# Submitted via: FreeRIP 2.90 
#
DISCID=8808cf0a
DTITLE=Τα Μεγάλα Ελληνικά Hits 03 - Thema - Τα Μεγάλα Ελληνικά Hits 03 - Thema
DYEAR=2006
DGENRE=Unknown
TTITLE0=Δημήτρης Μητροπάνος - Καλοκαίρια και Χειμώνες
TTITLE1=Νίκος Βέρτης - Αστέρι Μου
TTITLE2=Γιώργος Γιαννιάς - Σ' Αγαπώ
TTITLE3=Φίλιππος Νικολάου - Όταν
TTITLE4=Γιώργος Τσαλίκης - Με Χαλάει
TTITLE5=Στέλιος Ρόκκος - Σιγά Σιγά
TTITLE6=Νίκος Μακρόπουλος - Τι Να Κάνω Εκεί
TTITLE7=Γιώργος Μαζωνάκης - Εδώ
TTITLE8=Μαριάντα Πιερίδη - Σ' Αγαπώ
TTITLE9=Δημήτρης Κοριαλάς - Επειδή Δεν Σ' Αντέχω
EXTD=
EXTT0=
EXTT1=
EXTT2=
EXTT3=
EXTT4=
EXTT5=
EXTT6=
EXTT7=
EXTT8=
EXTT9=
PLAYORDER=
